<?xml version="1.0" encoding="UTF-8" standalone="no"?>
<!-- Created with Inkscape (http://www.inkscape.org/) -->

<svg
   width="512"
   height="512"
   viewBox="0 0 135.46666 135.46667"
   version="1.1"
   id="svg5"
   xml:space="preserve"
   inkscape:version="1.2.2 (732a01da63, 2022-12-09)"
   sodipodi:docname="logo.svg"
   xmlns:inkscape="http://www.inkscape.org/namespaces/inkscape"
   xmlns:sodipodi="http://sodipodi.sourceforge.net/DTD/sodipodi-0.dtd"
   xmlns="http://www.w3.org/2000/svg"
   xmlns:svg="http://www.w3.org/2000/svg"><sodipodi:namedview
     id="namedview7"
     pagecolor="#ffffff"
     bordercolor="#666666"
     borderopacity="1.0"
     inkscape:showpageshadow="2"
     inkscape:pageopacity="0.0"
     inkscape:pagecheckerboard="0"
     inkscape:deskcolor="#d1d1d1"
     inkscape:document-units="px"
     showgrid="false"
     showguides="true"
     inkscape:zoom="0.89263468"
     inkscape:cx="600.46961"
     inkscape:cy="35.848932"
     inkscape:window-width="2560"
     inkscape:window-height="1369"
     inkscape:window-x="1912"
     inkscape:window-y="-8"
     inkscape:window-maximized="1"
     inkscape:current-layer="g4770" /><defs
     id="defs2" /><g
     inkscape:label="Camada 1"
     inkscape:groupmode="layer"
     id="layer1"><circle
       style="fill:#1f90ef;fill-rule:evenodd;stroke-width:0.320748;fill-opacity:1"
       id="path111"
       cx="67.73333"
       cy="67.73333"
       r="67.73333" /><g
       id="g4770"
       transform="matrix(1.6590619,0,0,1.6590619,-1.0879416,-22.387616)"><path
         d="m 53.506856,56.872068 c 0,-1.706126 1.353135,-3.05926 3.059261,-3.05926 1.706126,0 3.059262,1.353134 3.059262,3.05926 0,1.706126 -1.353136,3.05926 -3.059262,3.05926 -1.706126,0 -3.059261,-1.353134 -3.059261,-3.05926 z m 0,-14.707983 c 0,-1.706126 1.353135,-3.05926 3.059261,-3.05926 1.706126,0 3.059262,1.353134 3.059262,3.05926 0,1.706126 -1.353136,3.059261 -3.059262,3.059261 -1.706126,0 -3.059261,-1.353135 -3.059261,-3.059261 z M 34.504143,34.162943 c 10.06026,0 17.178923,5.059546 17.178923,14.590318 0,15.472798 -15.531631,24.415253 -30.416108,30.651438 -0.117662,0.117665 -0.294161,0.176494 -0.470656,0.176494 -0.352988,0 -0.647149,-0.294156 -0.647149,-0.64715 0,-0.176494 0.05883,-0.352992 0.176495,-0.470654 11.942882,-6.942171 24.415251,-15.590464 24.415251,-29.062976 0,-7.118664 -3.765245,-13.943168 -10.236756,-13.943168 -4.647723,0 -8.118806,3.35342 -9.648437,7.824647 0.823648,-0.470655 1.647296,-0.764815 2.529773,-0.764815 3.235755,0 5.883194,2.647437 5.883194,5.883193 0,3.412252 -2.588605,6.295017 -5.883194,6.295017 -3.529916,0 -6.589177,-2.823933 -6.589177,-6.295017 0,-7.765815 6.059689,-14.237327 13.707841,-14.237327 z"
         id="path4790"
         style="fill:#073d6b;fill-opacity:1;stroke:#073d6b;stroke-width:1.59478;stroke-dasharray:none;stroke-opacity:1" /><path
         d="m 55.101631,54.320428 c 0,-1.706126 1.353135,-3.05926 3.059261,-3.05926 1.706126,0 3.059262,1.353134 3.059262,3.05926 0,1.706126 -1.353136,3.05926 -3.059262,3.05926 -1.706126,0 -3.059261,-1.353134 -3.059261,-3.05926 z m 0,-14.707983 c 0,-1.706126 1.353135,-3.05926 3.059261,-3.05926 1.706126,0 3.059262,1.353134 3.059262,3.05926 0,1.706126 -1.353136,3.059261 -3.059262,3.059261 -1.706126,0 -3.059261,-1.353135 -3.059261,-3.059261 z M 36.098918,31.611303 c 10.06026,0 17.178923,5.059546 17.178923,14.590318 0,15.472798 -15.531631,24.415253 -30.416108,30.651438 -0.117662,0.117665 -0.294161,0.176494 -0.470656,0.176494 -0.352988,0 -0.647149,-0.294156 -0.647149,-0.64715 0,-0.176494 0.05883,-0.352992 0.176495,-0.470654 11.942882,-6.942171 24.415251,-15.590464 24.415251,-29.062976 0,-7.118664 -3.765245,-13.943168 -10.236756,-13.943168 -4.647723,0 -8.118806,3.35342 -9.648437,7.824647 0.823648,-0.470655 1.647296,-0.764815 2.529773,-0.764815 3.235755,0 5.883194,2.647437 5.883194,5.883193 0,3.412252 -2.588605,6.295017 -5.883194,6.295017 -3.529916,0 -6.589177,-2.823933 -6.589177,-6.295017 0,-7.765815 6.059689,-14.237327 13.707841,-14.237327 z"
         id="path4778"
         style="fill:#ffffff;stroke:#ffffff;stroke-width:1.59478;stroke-linecap:round;stroke-linejoin:round;stroke-dasharray:none" /></g></g></svg>
