<svg xmlns="http://www.w3.org/2000/svg" xml:space="preserve" width="512" height="512" viewBox="0 0 135.467 135.467"><circle cx="67.733" cy="67.733" r="67.733" style="fill:#1f90ef;fill-rule:evenodd;stroke-width:.320748;fill-opacity:1"/><path d="M53.507 56.872a3.038 3.038 0 0 1 3.06-3.06 3.038 3.038 0 0 1 3.058 3.06 3.038 3.038 0 0 1-3.059 3.06 3.038 3.038 0 0 1-3.06-3.06zm0-14.708a3.038 3.038 0 0 1 3.06-3.06 3.038 3.038 0 0 1 3.058 3.06 3.038 3.038 0 0 1-3.059 3.06 3.038 3.038 0 0 1-3.06-3.06zm-19.003-8.001c10.06 0 17.18 5.06 17.18 14.59 0 15.473-15.533 24.416-30.417 30.652a.668.668 0 0 1-.47.176.653.653 0 0 1-.648-.647c0-.176.059-.353.177-.47C32.269 71.52 44.74 62.872 44.74 49.4c0-7.118-3.765-13.943-10.237-13.943-4.648 0-8.119 3.354-9.648 7.825.823-.47 1.647-.765 2.53-.765 3.235 0 5.883 2.648 5.883 5.883 0 3.413-2.589 6.295-5.884 6.295-3.53 0-6.589-2.824-6.589-6.295 0-7.766 6.06-14.237 13.708-14.237z" style="fill:#073d6b;fill-opacity:1;stroke:#073d6b;stroke-width:1.59478;stroke-dasharray:none;stroke-opacity:1" transform="translate(-1.088 -22.388) scale(1.65906)"/><path d="M55.102 54.32a3.038 3.038 0 0 1 3.059-3.059 3.038 3.038 0 0 1 3.06 3.06 3.038 3.038 0 0 1-3.06 3.059 3.038 3.038 0 0 1-3.06-3.06zm0-14.708a3.038 3.038 0 0 1 3.059-3.059 3.038 3.038 0 0 1 3.06 3.06 3.038 3.038 0 0 1-3.06 3.059 3.038 3.038 0 0 1-3.06-3.06zm-19.003-8c10.06 0 17.179 5.059 17.179 14.59 0 15.472-15.532 24.415-30.416 30.651a.668.668 0 0 1-.47.177.653.653 0 0 1-.648-.648c0-.176.059-.353.176-.47 11.943-6.942 24.416-15.59 24.416-29.063 0-7.119-3.766-13.943-10.237-13.943-4.648 0-8.119 3.353-9.649 7.824.824-.47 1.648-.765 2.53-.765 3.236 0 5.883 2.648 5.883 5.884 0 3.412-2.588 6.295-5.883 6.295-3.53 0-6.589-2.824-6.589-6.295 0-7.766 6.06-14.238 13.708-14.238z" style="fill:#fff;stroke:#fff;stroke-width:1.59478;stroke-linecap:round;stroke-linejoin:round;stroke-dasharray:none" transform="translate(-1.088 -22.388) scale(1.65906)"/></svg>